<?xml version="1.0" encoding="UTF-8" standalone="no"?>
<svg
   width="1111.8602pt"
   height="1074.2083pt"
   version="1.1"
   viewBox="0 0 1111.8603 1074.2083"
   id="svg22"
   sodipodi:docname="famly_kama_icon.svg"
   inkscape:version="1.2.1 (9c6d41e410, 2022-07-14)"
   inkscape:export-filename="famly_icon_black_on_white.png"
   inkscape:export-xdpi="4.2952023"
   inkscape:export-ydpi="4.2952023"
   xmlns:inkscape="http://www.inkscape.org/namespaces/inkscape"
   xmlns:sodipodi="http://sodipodi.sourceforge.net/DTD/sodipodi-0.dtd"
   xmlns="http://www.w3.org/2000/svg"
   xmlns:svg="http://www.w3.org/2000/svg">
  <defs
     id="defs26">
    <rect
       x="-517.24969"
       y="-231.60434"
       width="3975.8745"
       height="1964.9377"
       id="rect541" />
    <rect
       x="592.29791"
       y="1600"
       width="2863.8411"
       height="1694.1902"
       id="rect309" />
  </defs>
  <sodipodi:namedview
     id="namedview24"
     pagecolor="#ffffff"
     bordercolor="#000000"
     borderopacity="0.25"
     inkscape:showpageshadow="2"
     inkscape:pageopacity="0.0"
     inkscape:pagecheckerboard="0"
     inkscape:deskcolor="#d1d1d1"
     inkscape:document-units="pt"
     showgrid="true"
     inkscape:zoom="0.25"
     inkscape:cx="-584"
     inkscape:cy="1232"
     inkscape:window-width="1920"
     inkscape:window-height="991"
     inkscape:window-x="-9"
     inkscape:window-y="-9"
     inkscape:window-maximized="1"
     inkscape:current-layer="layer5"
     showguides="true">
    <inkscape:grid
       type="xygrid"
       id="grid622" />
  </sodipodi:namedview>
  <g
     inkscape:groupmode="layer"
     id="layer5"
     inkscape:label="background">
    <rect
       style="display:inline;opacity:0.581395;fill:#e6e6e6;stroke:#553467;stroke-width:0.999997"
       id="rect305"
       width="1149"
       height="1107"
       x="-18"
       y="-12" />
  </g>
  <g
     inkscape:groupmode="layer"
     id="layer2"
     inkscape:label="mom"
     style="display:inline">
    <path
       d="m 872.95455,0 c -96.609,0 -170.68,79.688 -170.68,175.45 0,19.312 6.0469,34.359 9.8906,44.859 3.8437,10.5 5.0625,15.328 4.1719,19.875 l -10.969,55.641 c -2.3906,12 5.0156,23.766 16.875,26.812 l 65.625,16.781 h 0.0469 c 12.328,3.1406 24.891,-4.3125 28.031,-16.641 1.5,-5.9531 0.60938,-12.234 -2.4844,-17.484 -3.1406,-5.25 -8.2031,-9.0469 -14.156,-10.594 l -44.484,-11.391 6.75,-34.219 c 3.6094,-18.234 -2.0156,-33.469 -6.0938,-44.625 -4.0782,-11.156 -7.0781,-19.312 -7.0781,-29.016 0,-72.609 52.875,-129.37 124.6,-129.37 71.719,0 124.55,56.766 124.55,129.37 0,11.297 -3.0938,21.141 -6.8438,32.203 -3.7969,11.062 -9.75,23.953 -6.3281,41.438 l 6.75,34.219 -44.484,11.391 c -5.9531,1.5469 -11.016,5.3438 -14.156,10.594 -3.0938,5.25 -4.0312,11.531 -2.4844,17.484 1.5,5.9062 5.2969,11.016 10.547,14.109 5.2969,3.1406 11.578,4.0312 17.484,2.5312 l 65.62495,-16.781 c 11.859,-3.0469 19.312,-14.812 16.922,-26.812 l -10.969,-55.641 c 0,-0.0469 0.7969,-6.1875 4.6875,-17.578 3.8906,-11.3905 9.3281,-27.375 9.3281,-47.109 0,-95.766 -74.06195,-175.45 -170.67995,-175.45 z"
       fill-rule="evenodd"
       id="path8"
       style="stroke:#343467;stroke-opacity:1;fill-opacity:1;fill:#343467" />
    <path
       d="m 919.45455,98.158 c -6.9844,-1.3125 -14.203,0.65625 -19.547,5.3906 -6.6562,5.9062 -26.906,18.516 -48.234,29.578 -21.281,11.062 -44.484,21.656 -60,27.797 h 0.0469 c -8.7656,3.4688 -14.531,11.953 -14.531,21.422 0,24.844 5.7188,54.516 19.875,80.859 14.1562,26.343 40.266,50.812 75.938,50.812 35.672,0 61.781,-24.422 75.938,-50.812 14.156,-26.344 19.875,-56.062 19.875,-80.859 0,-32.672 -15.516,-61.969 -39.75,-80.016 h -0.0469 c -2.8125,-2.1094 -6.0938,-3.5625 -9.5625,-4.1719 z m -6.6094,53.016 c 6.0469,8.6719 9.75,19.359 9.75,31.172 0,16.922 -4.9688,41.531 -14.391,59.062 -9.375,17.531 -19.641,26.484 -35.297,26.484 -15.656,0 -25.875,-8.9531 -35.297,-26.484 -6.8906,-12.844 -11.391,-29.484 -13.312,-44.156 14.906,-6.4688 32.062,-14.578 48.609,-23.203 14.625,-7.5938 28.172,-15.141 39.938,-22.875 z"
       id="path10"
       style="stroke:#343467;stroke-opacity:1;fill-opacity:1;fill:#343467" />
    <path
       d="m 952.58455,295.878 c -9.3281,-0.42188 -17.953,4.875 -21.844,13.359 -5.3438,11.531 -0.32812,25.219 11.25,30.562 6.375,2.9531 12.188,6.3281 17.391,10.078 v 0.0469 c 21.422,15.469 34.875,35.391 33.094,65.297 l -10.781,178.13 c -0.23438,3.7031 0.46875,7.4531 2.0156,10.875 l 69.42195,154.08001 h -72.93795 v -0.0469 c -12.75,0 -23.062,10.359 -23.062,23.062 V 1003.981 c -2.8125,5.8594 -10.688,16.875 -30.562,16.875 -27.047,0 -31.969,-20.484 -31.969,-20.484 v 0.047 c -3.2812,-9 -11.812,-15 -21.375,-15.141 -9.6094,-0.094 -18.234,5.7656 -21.703,14.672 0,0 -6.2344,20.953 -32.109,20.953 -19.078,0 -27.469,-11.344 -30.562,-17.297 V 825.42587 h -0.0469 c 0,-6.1406 -2.3906,-12 -6.75,-16.312 -4.3125,-4.3125 -10.172,-6.75 -16.266,-6.75 -12.75,0 -23.062,10.312 -23.062,23.062 v 182.95003 -0.047 c 0,2.8594 0.51562,5.7188 1.5469,8.3906 0,0 21.609,50.25 75.094,50.25 23.953,0 41.484,-10.078 53.531,-21.234 12.094,11.156 29.578,21.234 53.672,21.234 54.047,0 75.23395,-50.719 75.23395,-50.719 l 0.047,0.047 c 0.9375,-2.5781 1.4062,-5.25 1.4062,-7.9688 V 804.37867 h 85.547 c 7.8281,0 15.1409,-3.9844 19.3589,-10.547 4.2656,-6.5625 4.875,-14.859 1.6406,-21.984 l -81.7499,-181.4 10.453,-172.45 c 2.8125,-46.359 -21.375,-83.297 -52.12495,-105.47 -7.8281,-5.625 -16.219,-10.5 -25.078,-14.578 l 0.0469,0.0469 c -2.7656,-1.3125 -5.7188,-2.0156 -8.7656,-2.1094 z m -159.19,0 c -3,0.0937 -6,0.79688 -8.7188,2.0625 -8.8594,4.0781 -17.25,8.9531 -25.078,14.578 -30.75,22.172 -54.938,59.109 -52.172,105.47 l 10.547,173.95 c -1.5469,5.2969 -8.7656,29.484 -14.906,44.391 v 0.0469 c -4.875,11.766 0.75,25.219 12.516,30.094 5.6719,2.3438 12,2.2969 17.672,-0.0469 5.625,-2.3438 10.125,-6.8438 12.422,-12.469 8.9062,-21.609 17.719,-52.875 17.719,-52.875 0.70312,-2.5312 1.0312,-5.1562 0.84375,-7.7344 l -10.781,-178.13 c -1.8281,-29.859 11.672,-49.828 33.094,-65.297 5.25,-3.7969 11.062,-7.1719 17.438,-10.078 v -0.0469 c 5.5312,-2.5312 9.8438,-7.2188 11.953,-12.938 2.1094,-5.7656 1.875,-12.094 -0.70312,-17.625 -3.8906,-8.4844 -12.516,-13.781 -21.844,-13.406 z"
       id="path12"
       style="stroke:#343467;stroke-opacity:1;fill-opacity:1;fill:#343467;stroke-width:1;stroke-dasharray:none" />
    <path
       d="m 872.99455,758.248 c -6.1406,0 -12,2.4375 -16.312,6.7969 -4.3125,4.3125 -6.75,10.172 -6.75,16.266 v 227.02 c 0,12.75 10.312,23.062 23.062,23.062 12.75,0 23.062,-10.312 23.062,-23.062 v -227.02 c 0,-6.0938 -2.4375,-11.953 -6.75,-16.266 -4.3125,-4.3594 -10.219,-6.7969 -16.312,-6.7969 z"
       id="path14"
       style="stroke:#343467;stroke-opacity:1;fill-opacity:1;fill:#343467" />
  </g>
  <g
     inkscape:groupmode="layer"
     id="layer1"
     inkscape:label="ka"
     transform="matrix(0.79679153,0,0,0.79679153,53.987986,326.31226)"
     style="display:inline">
    <path
       d="m 752.38821,354.84278 c -40.47483,0 -81.89093,9.29503 -115.83582,30.7684 -33.94489,21.47337 -60.18262,58.47703 -60.18262,104.42255 v 96.06904 c 0,42.0637 21.17869,77.30252 46.71109,103.54025 v 179.30662 l -0.0589,0.059 c 0,3.58864 0.70596,7.17729 2.00027,10.53048 0,0 22.64959,51.71115 77.12557,51.71115 21.53134,0 38.00365,-8.11856 50.18126,-17.88423 12.17771,9.82453 28.6499,17.88423 50.24024,17.88423 54.88763,0 77.3615,-52.29976 77.3615,-52.29976 1.17659,-3.17674 1.76483,-6.53006 1.76483,-9.94225 V 689.70147 c 25.59138,-26.29672 46.7111,-61.53554 46.7111,-103.54026 v -96.06904 c 0,-45.94552 -26.23773,-82.95018 -60.18262,-104.42254 -33.94489,-21.47237 -75.41998,-30.7684 -115.83582,-30.7684 z m 0,57.88842 c 31.06208,0 63.1834,8.0597 84.89171,21.82628 21.70832,13.76659 33.29729,29.94385 33.29729,55.53523 v 96.06904 c 0,24.41417 -15.64901,50.29923 -37.29833,70.00702 v -0.0589 c -6.00057,5.52993 -9.47162,13.29582 -9.47162,21.41338 V 863.5945 c -2.4709,4.17688 -8.17729,9.76567 -21.23767,9.76567 -21.00173,0 -23.06124,-14.35507 -23.06124,-14.35507 -4.11801,-11.23644 -14.82445,-18.8255 -26.82634,-18.94348 -12.06012,-0.11797 -22.88428,7.23602 -27.29697,18.41385 0,0 -3.41219,14.94243 -23.2382,14.94243 -12.64823,0 -18.58956,-6.05943 -21.23768,-10.47175 V 677.52758 c 0,-8.11856 -3.41218,-15.8837 -9.41275,-21.35565 -21.64932,-19.70779 -37.29834,-45.59285 -37.29834,-70.00701 v -96.06905 c 0,-25.59138 11.53062,-41.76876 33.29729,-55.53522 21.70832,-13.76646 53.82964,-21.82629 84.89172,-21.82629 z"
       id="path16"
       style="stroke-width:1.25503;stroke:#343467;stroke-opacity:1;fill-opacity:1;fill:#343467" />
    <path
       d="m 653.48455,851.718 c -6.1406,0 -12,2.4375 -16.312,6.75 -4.312,4.3125 -6.75,10.172 -6.75,16.312 v 148.45 c 0,6.0938 2.4375,12 6.75,16.312 4.3125,4.312 10.172,6.75 16.312,6.75 12.75,0 23.062,-10.312 23.062,-23.062 V 874.78 c 0,-12.75 -10.312,-23.062 -23.062,-23.062 z"
       id="path18"
       transform="matrix(1.2550334,0,0,1.2550334,-67.756728,-413.2979)"
       style="stroke:#343467;stroke-opacity:1;fill-opacity:1;fill:#343467" />
    <path
       d="m 653.48455,439.408 c -57.281,0 -104.2,46.922 -104.2,104.2 0,57.278 46.922,104.2 104.2,104.2 57.278,0 104.2,-46.922 104.2,-104.2 0,-57.278 -46.922,-104.2 -104.2,-104.2 z m 0,46.125 c 32.344,0 58.078,25.734 58.078,58.078 0,32.344 -25.734,58.078 -58.078,58.078 -32.344,0 -58.078,-25.734 -58.078,-58.078 0,-32.344 25.734,-58.078 58.078,-58.078 z"
       id="path20"
       transform="matrix(1.2550334,0,0,1.2550334,-67.756728,-413.2979)"
       style="stroke:#343467;stroke-opacity:1;fill-opacity:1;fill:#343467" />
  </g>
  <g
     inkscape:groupmode="layer"
     id="layer3"
     inkscape:label="dad"
     style="display:inline">
    <path
       d="m 196.87455,268.648 c -41.953,0 -84.938,9.75 -119.53,31.688 -34.594,21.891 -60.656,58.547 -60.656,104.86 v 201.84 c 0,43.312 22.641,80.062 49.922,107.3 v 294.05 -0.047 c 0,2.9062 0.51562,5.7188 1.5938,8.3906 0,0 21.609,50.25 75.094,50.25 23.953,0 41.484,-10.078 53.531,-21.234 12.094,11.156 29.578,21.234 53.672,21.234 54.047,0 75.234,-50.719 75.234,-50.719 v 0.047 c 0.9375,-2.5781 1.4062,-5.25 1.4062,-7.9688 v -164.58 c 0,-12.75 -10.312,-23.062 -23.062,-23.062 -12.703,0 -23.062,10.312 -23.062,23.062 v 160.26 c -2.8125,5.8594 -10.688,16.875 -30.562,16.875 -27.047,0 -31.969,-20.484 -31.969,-20.484 -3.2812,-9 -11.812,-15 -21.375,-15.141 -9.6094,-0.094 -18.234,5.7656 -21.703,14.672 0,0 -6.2344,20.953 -32.109,20.953 -19.078,0 -27.422,-11.344 -30.562,-17.297 v -298.97 c 0,-6.4688 -2.7656,-12.656 -7.5469,-17.062 -24.188,-22.031 -42.375,-51.422 -42.375,-80.578 v -201.84 c 0,-30.094 14.344,-50.156 39.188,-65.906 24.891,-15.75 60.422,-24.516 94.875,-24.516 34.453,0 69.984,8.7656 94.875,24.516 24.844,15.75 39.188,35.812 39.188,65.906 v 71.906 c 0,6.1406 2.4375,12 6.75,16.312 4.3125,4.312 10.172,6.75 16.312,6.75 6.0938,0 12,-2.4375 16.312,-6.75 4.312,-4.3125 6.75,-10.172 6.75,-16.312 v -71.906 c 0,-46.312 -26.062,-82.969 -60.656,-104.91 -34.594,-21.891 -77.625,-31.641 -119.53,-31.641 z"
       id="path2"
       style="stroke:#343467;stroke-opacity:1;fill-opacity:1;fill:#343467" />
    <path
       d="m 196.6911,263.8603 c 41.953,0 84.938,9.75 119.53,31.688 34.594,21.891 60.656,58.547 60.656,104.86 v 201.84 c 0,43.312 -22.641,80.062 -49.922,107.3 v 294.05 -0.047 c 0,2.9062 -0.51562,5.7188 -1.5938,8.3906 0,0 -21.609,50.25 -75.094,50.25 -23.953,0 -41.484,-10.078 -53.531,-21.234 -12.094,11.156 -29.578,21.234 -53.672,21.234 -54.047,0 -75.234,-50.719 -75.234,-50.719 v 0.047 c -0.9375,-2.5781 -1.4062,-5.25 -1.4062,-7.9688 v -164.58 c 0,-12.75 10.312,-23.062 23.062,-23.062 12.703,0 23.062,10.312 23.062,23.062 v 160.26 c 2.8125,5.8594 10.688,16.875 30.562,16.875 27.047,0 31.969,-20.484 31.969,-20.484 3.2812,-9 11.812,-15 21.375,-15.141 9.6094,-0.094 18.234,5.7656 21.703,14.672 0,0 6.2344,20.953 32.109,20.953 19.078,0 27.422,-11.344 30.562,-17.297 v -298.97 c 0,-6.4688 2.7656,-12.656 7.5469,-17.062 24.188,-22.031 42.375,-51.422 42.375,-80.578 v -201.84 c 0,-30.094 -14.344,-50.156 -39.188,-65.906 -24.891,-15.75 -60.422,-24.516 -94.875,-24.516 -34.453,0 -69.984,8.7656 -94.875,24.516 -24.844,15.75 -39.188,35.812 -39.188,65.906 v 71.906 c 0,6.1406 -2.4375,12 -6.75,16.312 -4.3125,4.312 -10.172,6.75 -16.312,6.75 -6.0938,0 -12,-2.4375 -16.312,-6.75 -4.312,-4.3125 -6.75,-10.172 -6.75,-16.312 v -71.906 c 0,-46.312 26.062,-82.969 60.656,-104.91 34.594,-21.891 77.625,-31.641 119.53,-31.641 z"
       id="path2-4"
       style="stroke:#343467;stroke-opacity:1;fill-opacity:1;fill:#343467" />
    <path
       d="m 196.87455,34.266 c -68.953,0 -125.39,56.391 -125.39,125.34 0,68.949 56.391,125.34 125.39,125.34 68.953,0 125.34,-56.391 125.34,-125.34 0,-68.949 -56.391,-125.34 -125.34,-125.34 z m 0,46.125 c 44.016,0 79.219,35.203 79.219,79.266 0,44.016 -35.203,79.219 -79.219,79.266 -44.062,0 -79.266,-35.203 -79.266,-79.266 0,-44.063 35.203,-79.266 79.266,-79.266 z"
       id="path4"
       style="stroke:#343467;stroke-opacity:1;fill-opacity:1;fill:#343467" />
    <path
       d="m 196.87455,687.048 c -6.0938,0 -11.953,2.4375 -16.312,6.7969 -4.3125,4.3125 -6.75,10.172 -6.75,16.266 v 298.22 c 0,12.75 10.359,23.062 23.062,23.062 12.75,0 23.062,-10.312 23.062,-23.062 v -298.22 c 0,-6.0938 -2.4375,-11.953 -6.75,-16.266 -4.3125,-4.3594 -10.172,-6.7969 -16.312,-6.7969 z"
       id="path6"
       style="stroke:#343467;stroke-opacity:1;fill-opacity:1;fill:#343467" />
  </g>
  <g
     inkscape:groupmode="layer"
     id="layer4"
     inkscape:label="ma"
     style="display:inline">
    <path
       d="m 427.68851,569.50733 c -45.64101,0 -83.02567,37.38705 -83.02567,83.02568 0,45.63862 37.38705,83.02567 83.02567,83.02567 45.63863,0 83.02568,-37.38705 83.02568,-83.02567 0,-45.63863 -37.38705,-83.02568 -83.02568,-83.02568 z m 0,36.75201 c 25.77143,0 46.27606,20.50463 46.27606,46.27606 0,25.77142 -20.50463,46.27606 -46.27606,46.27606 -25.77142,0 -46.27606,-20.50464 -46.27606,-46.27606 0,-25.77143 20.50464,-46.27606 46.27606,-46.27606 z"
       id="path20-6"
       style="stroke-width:0.796792;stroke:#343467;stroke-opacity:1;fill-opacity:1;fill:#343467" />
    <path
       d="m 421.68851,898.03245 c -4.89277,0 -9.56149,1.94217 -12.99726,5.37834 -3.43576,3.43616 -5.37834,8.10496 -5.37834,12.99726 v 118.28375 c 0,4.8554 1.94218,9.5615 5.37834,12.9972 3.43616,3.4358 8.10496,5.3784 12.99726,5.3784 10.1591,0 18.37561,-8.2166 18.37561,-18.3756 V 916.40805 c 0,-10.15909 -8.21651,-18.3756 -18.37561,-18.3756 z"
       id="path18-6"
       style="stroke-width:0.796792;stroke:#343467;stroke-opacity:1;fill-opacity:1;fill:#343467" />
    <path
       d="m 427.68851,702.26061 c -25.69652,0 -51.99064,5.90119 -73.54146,19.53414 -21.55083,13.63294 -38.20855,37.1257 -38.20855,66.29544 v 60.992 c 0,26.70527 13.44586,49.07758 29.65579,65.73531 v 113.8376 l -0.0374,0.038 c 0,2.2783 0.44819,4.5566 1.26992,6.6855 0,0 14.3797,32.8302 48.96523,32.8302 13.66975,0 24.12764,-5.1543 31.85891,-11.3543 7.73135,6.2374 18.18916,11.3543 31.89637,11.3543 34.84688,0 49.11501,-33.2039 49.11501,-33.2039 0.747,-2.0168 1.12045,-4.1458 1.12045,-6.3121 V 914.85463 c 16.24738,-16.69518 29.6558,-39.06749 29.6558,-65.7353 v -60.99201 c 0,-29.16974 -16.65773,-52.66314 -38.20855,-66.29544 -21.55082,-13.63231 -47.88239,-19.53414 -73.54147,-19.53414 z m 0,36.75201 c 19.72059,0 40.11368,5.11691 53.89578,13.857 13.7821,8.74008 21.13968,19.01065 21.13968,35.25802 v 60.992 c 0,15.49999 -9.9352,31.93381 -23.67985,44.44583 v -0.0375 c -3.80962,3.51083 -6.01331,8.44121 -6.01331,13.59486 v 118.13237 c -1.56872,2.6518 -5.19157,6.2 -13.4833,6.2 -13.33351,0 -14.64105,-9.1138 -14.64105,-9.1138 -2.61443,-7.1338 -9.4117,-11.9519 -17.03142,-12.0268 -7.65669,-0.075 -14.52869,4.594 -17.33021,11.6906 0,0 -2.16632,9.4866 -14.7534,9.4866 -8.03006,0 -11.80207,-3.847 -13.4833,-6.6483 V 907.12559 c 0,-5.15429 -2.16632,-10.08419 -5.97594,-13.55821 -13.74465,-12.51201 -23.67985,-28.94584 -23.67985,-44.44582 v -60.99201 c 0,-16.24737 7.32053,-26.51801 21.13968,-35.25802 13.7821,-8.74001 34.17519,-13.857 53.89578,-13.857 z"
       id="path16-5"
       style="stroke-width:0.796792;stroke:#343467;stroke-opacity:1;fill-opacity:1;fill:#343467" />
  </g>
</svg>
